<?xml version="1.0" standalone="no"?><!DOCTYPE svg PUBLIC "-//W3C//DTD SVG 1.1//EN" "http://www.w3.org/Graphics/SVG/1.1/DTD/svg11.dtd"><svg t="1679146689301" class="icon" viewBox="0 0 1024 1024" version="1.1" xmlns="http://www.w3.org/2000/svg" p-id="7611" xmlns:xlink="http://www.w3.org/1999/xlink" width="200" height="200"><path d="M426.667 256c0 31.232-8.406 60.544-23.04 85.76L512 451.627l287.061-287.062a85.333 85.333 0 0 1 120.662 0L403.029 681.26a170.667 170.667 0 1 1-60.33-60.331L451.669 512 342.7 403.03A170.667 170.667 0 1 1 426.667 256z m-85.334 0a85.333 85.333 0 1 0-170.666 0 85.333 85.333 0 0 0 170.666 0z m578.39 603.392a85.333 85.333 0 0 1-120.662 0L572.203 632.576l60.373-60.373 287.147 287.189zM682.667 469.333H768v85.334h-85.333v-85.334z m170.666 0h85.334v85.334h-85.334v-85.334z m-597.333 0h85.333v85.334H256v-85.334z m-170.667 0h85.334v85.334H85.333v-85.334z m170.667 384a85.333 85.333 0 1 0 0-170.666 85.333 85.333 0 0 0 0 170.666z" fill="#d81e06" p-id="7612"></path></svg>